<svg width="25" height="24" viewBox="0 0 25 24" fill="none" xmlns="http://www.w3.org/2000/svg">
<path d="M22.1528 0H2.59722C2.00785 0 1.44262 0.274844 1.02587 0.764069C0.609126 1.25329 0.375 1.91683 0.375 2.6087V21.3913C0.375 22.0832 0.609126 22.7467 1.02587 23.2359C1.44262 23.7252 2.00785 24 2.59722 24H22.1528C22.7421 24 23.3074 23.7252 23.7241 23.2359C24.1409 22.7467 24.375 22.0832 24.375 21.3913V2.6087C24.375 1.91683 24.1409 1.25329 23.7241 0.764069C23.3074 0.274844 22.7421 0 22.1528 0ZM21.7083 20.8696H3.04167V3.13043H21.7083V20.8696ZM6.59722 6.78261C6.59722 6.36749 6.7377 5.96937 6.98775 5.67583C7.23779 5.3823 7.57693 5.21739 7.93056 5.21739C8.28418 5.21739 8.62332 5.3823 8.87336 5.67583C9.12341 5.96937 9.26389 6.36749 9.26389 6.78261C9.26389 7.75123 9.59167 8.68017 10.1751 9.36509C10.7586 10.05 11.5499 10.4348 12.375 10.4348C13.2001 10.4348 13.9914 10.05 14.5749 9.36509C15.1583 8.68017 15.4861 7.75123 15.4861 6.78261C15.4861 6.36749 15.6266 5.96937 15.8766 5.67583C16.1267 5.3823 16.4658 5.21739 16.8194 5.21739C17.1731 5.21739 17.5122 5.3823 17.7623 5.67583C18.0123 5.96937 18.1528 6.36749 18.1528 6.78261C18.1528 8.58147 17.544 10.3067 16.4605 11.5786C15.377 12.8506 13.9074 13.5652 12.375 13.5652C10.8426 13.5652 9.37304 12.8506 8.28949 11.5786C7.20595 10.3067 6.59722 8.58147 6.59722 6.78261Z" fill="#757575"/>
</svg>
